<svg width="40" height="40" viewBox="0 0 40 40" fill="none" xmlns="http://www.w3.org/2000/svg">
<rect width="40" height="40" rx="20" fill="black"/>
<path d="M24.8719 30H15.126C14.6805 30 14.2349 29.7701 14.0122 29.3678L9.16707 20.6322C8.94431 20.2299 8.94431 19.7126 9.16707 19.3103L14.0122 10.6322C14.2349 10.2299 14.6805 10 15.126 10C15.5715 10 16.017 10.2299 16.2398 10.6322L19.9711 17.3563L23.7581 10.6322C23.9808 10.2299 24.4264 10 24.8719 10C25.3174 10 25.7629 10.2299 25.9857 10.6322L30.8308 19.3103C31.165 19.9425 30.9979 20.7471 30.3853 21.092C29.7727 21.4368 28.993 21.2644 28.6589 20.6322L24.8719 13.908L21.0849 20.6322C20.8621 21.0345 20.4166 21.2644 19.9711 21.2644C19.5256 21.2644 19.08 21.0345 18.8573 20.6322L15.126 13.908L11.7289 20L15.85 27.3563H24.8719C25.5959 27.3563 26.1528 27.931 26.1528 28.6782C26.1528 29.4253 25.5959 30 24.8719 30Z" fill="white"/>
</svg>
