<svg width="129" height="78" viewBox="0 0 129 78" fill="none" xmlns="http://www.w3.org/2000/svg">
<path d="M45.2939 54.8405H17.4818C16.2104 54.8405 14.939 54.2101 14.3033 53.107L0.476778 29.1537C-0.158926 28.0506 -0.158926 26.6323 0.476778 25.5292L14.3033 1.73346C14.939 0.63035 16.2104 0 17.4818 0C18.7533 0 20.0247 0.63035 20.6604 1.73346L31.3084 20.1712L42.1154 1.73346C42.7511 0.63035 44.0225 0 45.2939 0C46.5653 0 47.8367 0.63035 48.4724 1.73346L62.2989 25.5292C63.2525 27.2626 62.7757 29.4689 61.0275 30.4144C59.2794 31.3599 57.0544 30.8872 56.1008 29.1537L45.2939 10.716L34.4869 29.1537C33.8512 30.2568 32.5798 30.8872 31.3084 30.8872C30.037 30.8872 28.7656 30.2568 28.1299 29.1537L17.4818 10.716L7.78737 27.4202L19.5479 47.5914H45.2939C47.3599 47.5914 48.9492 49.1673 48.9492 51.216C48.9492 53.2646 47.3599 54.8405 45.2939 54.8405Z" fill="#1F1F1F"/>
<path d="M69.4506 60.356V65.3988H68.0203V64.7685C67.5435 65.2412 67.0667 65.5564 66.2721 65.5564C65.1596 65.5564 64.365 64.7685 64.365 63.5078V60.356H65.7953V63.1926C65.7953 63.9805 66.2721 64.2957 66.7489 64.2957C67.2256 64.2957 67.7024 63.9805 67.8614 63.6654V60.356H69.4506Z" fill="#1F1F1F"/>
<path d="M70.4042 65.0837V63.823C70.8809 64.1381 71.6756 64.4533 72.4702 64.4533C73.1059 64.4533 73.2648 64.2957 73.2648 63.9805C73.2648 63.823 73.2648 63.823 72.947 63.6654C72.7881 63.6654 72.7881 63.6654 72.6291 63.5078L72.3113 63.3502C72.1523 63.3502 71.9934 63.1926 71.8345 63.1926C70.722 62.8774 70.2452 62.5623 70.2452 61.6167C70.2452 60.6712 71.0399 60.0409 72.4702 60.0409C73.2648 60.0409 73.9005 60.1984 74.3773 60.5136V61.7743C73.7416 61.4591 73.1059 61.3016 72.6291 61.3016C72.1523 61.3016 71.8345 61.4591 71.8345 61.7743C71.8345 61.9319 71.9934 62.0895 72.1524 62.0895C72.3113 62.0895 72.4702 62.2471 72.6291 62.2471L73.1059 62.4047C74.2184 62.7198 74.6952 63.1926 74.6952 63.9805C74.6952 64.4533 74.5362 64.7685 74.0595 65.0837C73.5827 65.3988 73.1059 65.5564 72.4702 65.5564C71.6756 65.5564 70.8809 65.3988 70.4042 65.0837Z" fill="#1F1F1F"/>
<path d="M76.1255 64.9261C75.6487 64.4533 75.3309 63.823 75.3309 63.035C75.3309 62.2471 75.6487 61.6167 76.1255 61.144C76.6023 60.6712 77.238 60.356 78.0326 60.356C78.8272 60.356 79.304 60.6712 79.7808 61.144C80.2576 61.6167 80.4165 62.2471 80.4165 63.035V63.3502H76.7612C76.9201 63.9805 77.5558 64.4533 78.5094 64.4533C79.1451 64.4533 79.6219 64.2957 80.0986 63.9805V65.0837C79.6219 65.3988 78.9862 65.5564 78.1915 65.5564C77.3969 65.5564 76.6023 65.3988 76.1255 64.9261ZM78.9862 62.4047C78.9862 61.7743 78.5094 61.4591 77.8737 61.4591C77.238 61.4591 76.7612 61.9319 76.7612 62.4047H78.9862Z" fill="#1F1F1F"/>
<path d="M84.7075 60.356H86.1378V65.3988H84.7075V64.7685C84.2307 65.2412 83.7539 65.5564 82.9593 65.5564C81.8468 65.5564 81.0522 64.7685 81.0522 63.5078V60.356H82.6415V63.1926C82.6415 63.9805 83.1182 64.2957 83.595 64.2957C84.0718 64.2957 84.5486 63.9805 84.7075 63.6654V60.356Z" fill="#1F1F1F"/>
<path d="M87.2503 65.5564V60.5136H88.6806V61.144C88.9985 60.6712 89.6342 60.356 90.2699 60.356C91.0645 60.356 91.5413 60.6712 91.8592 61.144C92.177 60.6712 92.8127 60.356 93.6073 60.356C94.7198 60.356 95.3555 60.9864 95.3555 62.4047V65.5564H93.9252V62.7198C93.9252 62.0895 93.6073 61.6167 93.1306 61.6167C92.6538 61.6167 92.3359 61.9319 92.0181 62.2471V65.3988H90.5878V62.5623C90.5878 61.9319 90.2699 61.4591 89.7931 61.4591C89.3163 61.4591 88.9985 61.7743 88.6806 62.0895V65.3988H87.2503V65.5564Z" fill="#1F1F1F"/>
<path d="M99.3287 60.9864C99.8055 60.5136 100.6 60.1984 101.395 60.1984C102.189 60.1984 102.825 60.5136 103.461 60.9864C103.938 61.4591 104.255 62.0895 104.255 62.8774C104.255 63.6654 103.938 64.2957 103.461 64.7685C102.984 65.2412 102.189 65.5564 101.395 65.5564C100.6 65.5564 99.9644 65.2412 99.3287 64.7685C98.693 64.2957 98.534 63.6654 98.534 62.8774C98.534 62.2471 98.693 61.6167 99.3287 60.9864ZM101.236 64.2957C101.713 64.2957 102.03 64.1381 102.189 63.823C102.507 63.5078 102.507 63.1926 102.507 62.8774C102.507 62.4047 102.348 62.0895 102.189 61.9319C101.871 61.6167 101.554 61.4591 101.236 61.4591C100.759 61.4591 100.441 61.6167 100.282 61.9319C99.9644 62.2471 99.9644 62.5623 99.9644 62.8774C99.9644 63.3502 100.123 63.6654 100.282 63.823C100.6 64.2957 100.918 64.2957 101.236 64.2957Z" fill="#1F1F1F"/>
<path d="M118.877 60.5136H120.307V61.3016C120.466 60.9864 120.625 60.8288 120.943 60.6712C121.26 60.5136 121.578 60.356 122.055 60.356H122.214V61.7743C122.055 61.7743 121.896 61.7743 121.737 61.7743C121.102 61.7743 120.466 62.2471 120.307 62.7198V65.714H118.877V60.5136Z" fill="#1F1F1F"/>
<path d="M56.4187 65.5564V58.465H57.849L59.9151 61.4591L61.9811 58.465H63.4114V65.5564H61.9811V60.6712L59.9151 63.5078L57.849 60.6712V65.5564H56.4187Z" fill="#1F1F1F"/>
<path d="M105.368 65.5564V61.6167H104.414V60.356H105.368V59.8833C105.368 58.9377 106.004 58.1498 107.116 58.1498C107.593 58.1498 108.07 58.1498 108.387 58.3074V59.4105C108.07 59.2529 107.752 59.2529 107.593 59.2529C107.116 59.2529 106.957 59.4105 106.957 59.8833V60.1984H108.546V61.4591H106.957V65.5564H105.368Z" fill="#1F1F1F"/>
<path d="M110.93 65.5564L113.95 58.3074H115.38L118.4 65.5564H116.811L116.175 63.9805H113.155L112.52 65.5564H110.93ZM113.473 62.5623H115.539L114.427 60.0409L113.473 62.5623Z" fill="#1F1F1F"/>
<path d="M123.803 61.6167H122.85V60.356H123.803V58.9377H125.234V60.356H126.664V61.6167H125.234V63.6654C125.234 64.1381 125.393 64.4533 125.869 64.4533C126.187 64.4533 126.346 64.4533 126.664 64.2957V65.5564C126.346 65.714 126.028 65.8716 125.393 65.8716C124.28 65.8716 123.803 65.2413 123.803 64.1381V61.6167Z" fill="#1F1F1F"/>
<path d="M60.8686 69.6537C60.3918 69.1809 59.7561 69.0234 59.2794 69.0234C58.8026 69.0234 58.3258 69.3385 58.3258 69.8113C58.3258 69.9689 58.3258 70.1265 58.4847 70.1265C58.6436 70.4416 58.6436 70.4416 58.9615 70.7568L60.7097 72.4903C60.8686 72.1751 61.0275 71.7023 61.0275 71.072H62.4579C62.4579 72.0175 62.14 72.8055 61.6632 73.4358L63.0936 74.8541H61.3454L60.7097 74.2237C60.074 74.6965 59.4383 74.8541 58.6437 74.8541C57.849 74.8541 57.2133 74.6965 56.7365 74.2237C56.2598 73.751 55.9419 73.2782 55.9419 72.4903C55.9419 72.0175 56.1008 71.5448 56.2598 71.2296C56.5776 70.9144 56.7365 70.5992 57.0544 70.4416C56.7365 70.1265 56.7365 69.6537 56.7365 69.3385C56.7365 68.7082 56.8955 68.393 57.3722 67.9202C57.6901 67.6051 58.3258 67.2899 58.9615 67.2899C59.5972 67.2899 60.2329 67.4475 60.8686 67.7626V69.6537ZM59.7561 73.4358L58.0079 71.7023C57.6901 71.8599 57.3722 72.3327 57.3722 72.8055C57.3722 73.4358 57.849 73.9086 58.6437 73.9086C59.1204 73.9086 59.4383 73.751 59.7561 73.4358Z" fill="#1F1F1F"/>
<path d="M66.1132 67.9202H69.1328C69.9274 67.9202 70.5631 68.0778 70.8809 68.5506C71.3577 69.0233 71.5166 69.4961 71.5166 70.1265C71.5166 70.7568 71.3577 71.2296 70.8809 71.7023C70.4042 72.1751 69.7685 72.3327 69.1328 72.3327H67.5435V75.1693H66.1132V67.9202ZM67.5435 70.9144H69.1328C69.7685 70.9144 70.2452 70.5992 70.2452 69.9689C70.2452 69.3385 69.7685 69.0234 69.1328 69.0234H67.5435V70.9144Z" fill="#1F1F1F"/>
<path d="M72.4702 75.0117V67.9202H73.9005V70.5992C74.3773 70.1265 74.8541 69.8113 75.6487 69.8113C76.7612 69.8113 77.5558 70.5992 77.5558 71.8599V75.0117H76.1255V72.1751C76.1255 71.3872 75.6487 71.072 75.1719 71.072C74.6952 71.072 74.2184 71.3872 74.0595 71.7023V75.0117H72.4702Z" fill="#1F1F1F"/>
<path d="M78.9862 70.5992C79.4629 70.1265 80.0986 69.8113 81.0522 69.8113C81.8468 69.8113 82.4825 70.1265 83.1182 70.5992C83.595 71.072 83.9129 71.7023 83.9129 72.4903C83.9129 73.2782 83.595 73.9086 83.1182 74.3813C82.6415 74.8541 82.0058 75.1693 81.0522 75.1693C80.2576 75.1693 79.6219 74.8541 78.9862 74.3813C78.5094 73.9086 78.1915 73.2782 78.1915 72.4903C78.1915 71.7023 78.5094 71.072 78.9862 70.5992ZM81.0522 73.9086C81.3701 73.9086 81.8468 73.751 82.0058 73.4358C82.3236 73.1206 82.4825 72.8054 82.4825 72.4903C82.4825 72.0175 82.3236 71.7023 82.0058 71.5447C81.6879 71.2296 81.3701 71.072 81.0522 71.072C80.5754 71.072 80.2576 71.2296 80.0986 71.5447C79.7808 71.8599 79.7808 72.1751 79.7808 72.4903C79.7808 72.963 79.9397 73.2782 80.0986 73.4358C80.2576 73.751 80.5754 73.9086 81.0522 73.9086Z" fill="#1F1F1F"/>
<path d="M85.0254 71.072H84.0718V69.8113H85.0254V68.393H86.4557V69.8113H87.886V71.072H86.4557V73.1206C86.4557 73.5934 86.6146 73.9086 87.0914 73.9086C87.4092 73.9086 87.5682 73.9086 87.886 73.751V75.0117C87.5682 75.1693 87.2503 75.3269 86.6146 75.3269C85.5021 75.3269 85.0254 74.6965 85.0254 73.5934V71.072Z" fill="#1F1F1F"/>
<path d="M89.3163 70.5992C89.7931 70.1265 90.4288 69.8113 91.3824 69.8113C92.177 69.8113 92.8127 70.1265 93.4484 70.5992C93.9252 71.072 94.243 71.7023 94.243 72.4903C94.243 73.2782 93.9252 73.9086 93.4484 74.3813C92.9716 74.8541 92.3359 75.1693 91.3824 75.1693C90.5878 75.1693 89.952 74.8541 89.3163 74.3813C88.8396 73.9086 88.5217 73.2782 88.5217 72.4903C88.5217 71.7023 88.6806 71.072 89.3163 70.5992ZM91.2235 73.9086C91.7002 73.9086 92.0181 73.751 92.177 73.4358C92.4949 73.1206 92.4949 72.8054 92.4949 72.4903C92.4949 72.0175 92.3359 71.7023 92.177 71.5447C91.8592 71.2296 91.5413 71.072 91.2235 71.072C90.7467 71.072 90.4288 71.2296 90.2699 71.5447C89.952 71.8599 89.952 72.1751 89.952 72.4903C89.952 72.963 90.111 73.2782 90.2699 73.4358C90.5877 73.751 90.9056 73.9086 91.2235 73.9086Z" fill="#1F1F1F"/>
<path d="M98.534 69.9689H99.9644V74.5389C99.9644 76.43 98.534 77.2179 97.1037 77.2179C96.3091 77.2179 95.6734 77.0603 95.1966 76.7451V75.4844C95.6734 75.7996 96.3091 75.9572 96.9448 75.9572C97.7394 75.9572 98.534 75.642 98.534 74.5389V74.2237C98.2162 74.6965 97.5805 75.0117 96.9448 75.0117C96.3091 75.0117 95.6734 74.6965 95.1966 74.2237C94.7198 73.751 94.5609 73.1206 94.5609 72.3327C94.5609 71.5447 94.7198 71.072 95.1966 70.4416C95.6734 69.9689 96.1502 69.6537 96.9448 69.6537C97.5805 69.6537 98.2162 69.9689 98.534 70.4416V69.9689ZM98.534 72.963V71.7023C98.3751 71.2296 97.8983 71.072 97.2626 71.072C96.468 71.072 95.9912 71.7023 95.9912 72.3327C95.9912 73.1206 96.468 73.5934 97.2626 73.5934C97.8983 73.5934 98.3751 73.4358 98.534 72.963Z" fill="#1F1F1F"/>
<path d="M101.077 69.9689H102.507V70.7568C102.666 70.4416 102.825 70.284 103.143 70.1265C103.461 69.9689 103.779 69.8113 104.255 69.8113H104.414V71.2296C104.255 71.2296 104.096 71.2296 103.938 71.2296C103.302 71.2296 102.666 71.7023 102.507 72.1751V75.1693H101.077V69.9689Z" fill="#1F1F1F"/>
<path d="M110.295 73.9086V75.0117C110.136 75.1693 109.818 75.1693 109.5 75.1693C108.864 75.1693 108.546 75.0117 108.387 74.5389C107.911 75.0117 107.434 75.1693 106.639 75.1693C105.527 75.1693 104.732 74.5389 104.732 73.4358C104.732 72.963 104.891 72.4903 105.368 72.1751C105.686 71.8599 106.162 71.7023 106.798 71.7023C107.434 71.7023 107.911 71.8599 108.229 72.0175V71.8599C108.229 71.2296 107.752 70.9144 106.957 70.9144C106.48 70.9144 105.845 71.072 105.368 71.3872V70.1265C105.845 69.8113 106.48 69.6537 107.275 69.6537C107.911 69.6537 108.546 69.8113 109.023 70.1265C109.5 70.4416 109.659 70.9144 109.659 71.5448V73.2782C109.659 73.5934 109.818 73.5934 109.977 73.5934C110.136 73.9086 110.295 73.9086 110.295 73.9086ZM108.229 72.963C107.911 72.8055 107.593 72.6479 107.116 72.6479C106.48 72.6479 106.162 72.963 106.162 73.2782C106.162 73.751 106.48 73.9086 107.116 73.9086C107.593 73.9086 108.07 73.751 108.229 73.4358V72.963Z" fill="#1F1F1F"/>
<path d="M115.857 70.5992C116.334 71.072 116.493 71.7023 116.493 72.4903C116.493 73.2782 116.334 73.9086 115.857 74.3813C115.38 74.8541 114.903 75.1693 114.109 75.1693C113.314 75.1693 112.837 74.8541 112.52 74.3813V77.0603H111.089V69.9689H112.52V70.5992C112.837 70.1265 113.473 69.8113 114.109 69.8113C114.903 69.8113 115.38 69.9689 115.857 70.5992ZM112.52 71.8599V73.1206C112.678 73.5934 113.155 73.9086 113.791 73.9086C114.109 73.9086 114.586 73.751 114.744 73.4358C115.062 73.1206 115.062 72.8054 115.062 72.4903C115.062 72.0175 114.903 71.7023 114.744 71.5447C114.427 71.2296 114.109 71.072 113.791 71.072C113.155 71.072 112.678 71.3872 112.52 71.8599Z" fill="#1F1F1F"/>
<path d="M117.287 75.0117V67.9202H118.718V70.5992C119.194 70.1265 119.671 69.8113 120.466 69.8113C121.578 69.8113 122.373 70.5992 122.373 71.8599V75.0117H120.943V72.1751C120.943 71.3872 120.466 71.072 119.989 71.072C119.512 71.072 119.035 71.3872 118.877 71.7023V75.0117H117.287Z" fill="#1F1F1F"/>
<path d="M123.009 76.9027V75.642C123.168 75.7996 123.485 75.7996 123.803 75.7996C124.28 75.7996 124.598 75.4844 124.916 74.8541L122.691 69.9689H124.28L125.551 73.2782L126.823 69.9689H128.253L126.028 75.4844C125.551 76.5875 124.916 77.0603 123.962 77.0603C123.644 77.0603 123.326 77.0603 123.009 76.9027Z" fill="#1F1F1F"/>
<path d="M56.4187 54.6829V36.8755H60.8686L65.3185 43.8093L69.7685 36.8755H74.2184V54.6829H69.9274V43.8093L65.4775 50.428L61.0275 43.8093V54.6829H56.4187Z" fill="#1F1F1F"/>
<path d="M75.8076 54.6829L83.1182 36.8755H87.5682L94.8788 54.6829H89.952L88.5217 50.9008H82.0058L80.5754 54.6829H75.8076ZM83.595 47.2763H87.2503L85.3432 42.5486L83.595 47.2763Z" fill="#1F1F1F"/>
<path d="M96.468 36.8755H104.414C106.321 36.8755 107.911 37.3482 109.182 38.4514C110.295 39.5545 110.93 40.8152 110.93 42.5486C110.93 44.2821 110.295 45.5428 109.182 46.6459C108.07 47.749 106.48 48.2218 104.414 48.2218H101.077V54.8405H96.468V36.8755ZM101.077 44.2821H104.096C105.368 44.2821 106.321 43.6518 106.321 42.5486C106.321 41.4455 105.527 40.8152 104.096 40.8152H101.077V44.2821Z" fill="#1F1F1F"/>
</svg>
