<svg width="249" height="86" viewBox="0 0 249 86" fill="none" xmlns="http://www.w3.org/2000/svg">
<path d="M30 27.0107H202C217.464 27.0107 230 39.5468 230 55.0107C230 70.4747 217.464 83.0107 202 83.0107H30C14.536 83.0107 2 70.4747 2 55.0107C2 39.7884 14.1474 27.4028 29.2773 27.0195L30 27.0107Z" fill="#FF99CF"/>
<path d="M30 27.0107H202C217.464 27.0107 230 39.5468 230 55.0107C230 70.4747 217.464 83.0107 202 83.0107H30C14.536 83.0107 2 70.4747 2 55.0107C2 39.7884 14.1474 27.4028 29.2773 27.0195L30 27.0107Z" stroke="black" stroke-width="4"/>
<path d="M40.08 61.0107V50.4507H36.5V47.9707H46.62V50.4507H43.04V61.0107H40.08ZM49.6438 61.2507C49.0438 61.2507 48.5171 61.1174 48.0638 60.8507C47.6238 60.5841 47.2838 60.2241 47.0438 59.7707C46.8038 59.3174 46.6838 58.8107 46.6838 58.2507C46.6838 57.1841 47.1238 56.3641 48.0038 55.7907C48.8838 55.2041 50.3038 54.8107 52.2638 54.6107C52.2504 54.3174 52.1838 54.0707 52.0638 53.8707C51.9571 53.6574 51.7904 53.4974 51.5638 53.3907C51.3371 53.2707 51.0504 53.2107 50.7038 53.2107C50.2904 53.2107 49.8704 53.2841 49.4438 53.4307C49.0171 53.5774 48.5571 53.7907 48.0638 54.0707L47.0238 52.1507C47.4504 51.8841 47.8904 51.6574 48.3438 51.4707C48.7971 51.2707 49.2638 51.1174 49.7438 51.0107C50.2371 50.9041 50.7438 50.8507 51.2638 50.8507C52.1171 50.8507 52.8304 51.0174 53.4038 51.3507C53.9904 51.6707 54.4371 52.1641 54.7438 52.8307C55.0504 53.4841 55.2038 54.3241 55.2038 55.3507V61.0107H52.8038L52.6038 59.9907H52.5238C52.0971 60.3641 51.6504 60.6707 51.1838 60.9107C50.7171 61.1374 50.2038 61.2507 49.6438 61.2507ZM50.6238 58.9507C50.9571 58.9507 51.2504 58.8774 51.5038 58.7307C51.7571 58.5841 52.0104 58.3841 52.2638 58.1307V56.4507C51.5704 56.5441 51.0171 56.6641 50.6038 56.8107C50.2038 56.9574 49.9171 57.1374 49.7438 57.3507C49.5838 57.5507 49.5038 57.7774 49.5038 58.0307C49.5038 58.3374 49.6038 58.5707 49.8038 58.7307C50.0171 58.8774 50.2904 58.9507 50.6238 58.9507ZM57.6906 61.0107V46.9907H60.5906V54.9907H60.6706L63.7506 51.0907H66.9706L63.5306 55.2107L67.2306 61.0107H64.0506L61.8106 57.1507L60.5906 58.5307V61.0107H57.6906ZM72.5213 61.2507C71.5746 61.2507 70.7213 61.0441 69.9613 60.6307C69.2013 60.2174 68.6013 59.6241 68.1613 58.8507C67.7213 58.0774 67.5013 57.1441 67.5013 56.0507C67.5013 54.9707 67.7213 54.0441 68.1613 53.2707C68.6146 52.4974 69.2013 51.9041 69.9213 51.4907C70.6413 51.0641 71.3946 50.8507 72.1813 50.8507C73.1279 50.8507 73.9146 51.0641 74.5413 51.4907C75.1679 51.9041 75.6346 52.4707 75.9413 53.1907C76.2479 53.9107 76.4013 54.7174 76.4013 55.6107C76.4013 55.8641 76.3879 56.1174 76.3613 56.3707C76.3346 56.6107 76.3079 56.8041 76.2813 56.9507H69.7813L69.7413 54.9107H73.8813C73.8813 54.3907 73.7546 53.9641 73.5013 53.6307C73.2479 53.2841 72.8279 53.1107 72.2413 53.1107C71.9213 53.1107 71.6079 53.1974 71.3013 53.3707C70.9946 53.5441 70.7413 53.8441 70.5413 54.2707C70.3413 54.6974 70.2479 55.2907 70.2613 56.0507C70.2746 56.7974 70.4079 57.3841 70.6613 57.8107C70.9279 58.2374 71.2613 58.5441 71.6613 58.7307C72.0613 58.9041 72.4813 58.9907 72.9213 58.9907C73.3079 58.9907 73.6746 58.9374 74.0213 58.8307C74.3813 58.7107 74.7346 58.5507 75.0813 58.3507L76.0413 60.1507C75.5479 60.4974 74.9879 60.7707 74.3613 60.9707C73.7346 61.1574 73.1213 61.2507 72.5213 61.2507ZM86.2567 61.2307C85.0301 61.2307 84.1501 60.8774 83.6167 60.1707C83.0834 59.4507 82.8167 58.5241 82.8167 57.3907V53.3907H81.4767V51.2107L82.9967 51.0907L83.3367 48.0507H85.7767V51.0907H88.1567V53.3907H85.7767V57.3507C85.7767 57.9107 85.8901 58.3174 86.1167 58.5707C86.3567 58.8107 86.6701 58.9307 87.0567 58.9307C87.2167 58.9307 87.3767 58.9174 87.5367 58.8907C87.6967 58.8641 87.8501 58.8241 87.9967 58.7707L88.4767 60.8307C88.2234 60.9374 87.9034 61.0307 87.5167 61.1107C87.1434 61.1907 86.7234 61.2307 86.2567 61.2307ZM90.093 61.0107V46.9907H93.033V50.4307L92.893 52.2107C93.2663 51.8774 93.6996 51.5707 94.193 51.2907C94.6996 50.9974 95.2863 50.8507 95.953 50.8507C97.0463 50.8507 97.833 51.2107 98.313 51.9307C98.793 52.6374 99.033 53.6107 99.033 54.8507V61.0107H96.093V55.2307C96.093 54.5107 95.993 54.0174 95.793 53.7507C95.6063 53.4841 95.2996 53.3507 94.873 53.3507C94.4996 53.3507 94.1796 53.4374 93.913 53.6107C93.6463 53.7707 93.353 54.0041 93.033 54.3107V61.0107H90.093ZM105.959 61.2507C105.012 61.2507 104.159 61.0441 103.399 60.6307C102.639 60.2174 102.039 59.6241 101.599 58.8507C101.159 58.0774 100.939 57.1441 100.939 56.0507C100.939 54.9707 101.159 54.0441 101.599 53.2707C102.052 52.4974 102.639 51.9041 103.359 51.4907C104.079 51.0641 104.832 50.8507 105.619 50.8507C106.565 50.8507 107.352 51.0641 107.979 51.4907C108.605 51.9041 109.072 52.4707 109.379 53.1907C109.685 53.9107 109.839 54.7174 109.839 55.6107C109.839 55.8641 109.825 56.1174 109.799 56.3707C109.772 56.6107 109.745 56.8041 109.719 56.9507H103.219L103.179 54.9107H107.319C107.319 54.3907 107.192 53.9641 106.939 53.6307C106.685 53.2841 106.265 53.1107 105.679 53.1107C105.359 53.1107 105.045 53.1974 104.739 53.3707C104.432 53.5441 104.179 53.8441 103.979 54.2707C103.779 54.6974 103.685 55.2907 103.699 56.0507C103.712 56.7974 103.845 57.3841 104.099 57.8107C104.365 58.2374 104.699 58.5441 105.099 58.7307C105.499 58.9041 105.919 58.9907 106.359 58.9907C106.745 58.9907 107.112 58.9374 107.459 58.8307C107.819 58.7107 108.172 58.5507 108.519 58.3507L109.479 60.1507C108.985 60.4974 108.425 60.7707 107.799 60.9707C107.172 61.1574 106.559 61.2507 105.959 61.2507ZM121.414 61.2507C120.241 61.2507 119.208 60.9774 118.314 60.4307C117.434 59.8841 116.741 59.1041 116.234 58.0907C115.741 57.0774 115.494 55.8574 115.494 54.4307C115.494 53.0174 115.741 51.8107 116.234 50.8107C116.741 49.8107 117.434 49.0507 118.314 48.5307C119.208 47.9974 120.241 47.7307 121.414 47.7307C122.588 47.7307 123.614 47.9974 124.494 48.5307C125.388 49.0507 126.081 49.8107 126.574 50.8107C127.081 51.8107 127.334 53.0174 127.334 54.4307C127.334 55.8574 127.081 57.0774 126.574 58.0907C126.081 59.1041 125.388 59.8841 124.494 60.4307C123.614 60.9774 122.588 61.2507 121.414 61.2507ZM121.414 58.8507C122.014 58.8507 122.528 58.6774 122.954 58.3307C123.394 57.9707 123.728 57.4641 123.954 56.8107C124.194 56.1574 124.314 55.3641 124.314 54.4307C124.314 53.5641 124.194 52.8241 123.954 52.2107C123.728 51.5841 123.394 51.1041 122.954 50.7707C122.528 50.4374 122.014 50.2707 121.414 50.2707C120.828 50.2707 120.314 50.4374 119.874 50.7707C119.434 51.1041 119.094 51.5841 118.854 52.2107C118.628 52.8241 118.514 53.5641 118.514 54.4307C118.514 55.3641 118.628 56.1574 118.854 56.8107C119.094 57.4641 119.434 57.9707 119.874 58.3307C120.314 58.6774 120.828 58.8507 121.414 58.8507ZM125.714 64.6507C124.288 64.6507 123.088 64.2974 122.114 63.5907C121.141 62.8841 120.428 61.9907 119.974 60.9107L122.974 60.6107C123.134 61.0241 123.381 61.3507 123.714 61.5907C124.048 61.8441 124.414 62.0241 124.814 62.1307C125.228 62.2374 125.641 62.2907 126.054 62.2907C126.334 62.2907 126.594 62.2707 126.834 62.2307C127.088 62.1907 127.308 62.1441 127.494 62.0907L128.014 64.2107C127.788 64.3307 127.474 64.4307 127.074 64.5107C126.674 64.6041 126.221 64.6507 125.714 64.6507ZM132.526 61.2507C131.446 61.2507 130.659 60.8974 130.166 60.1907C129.686 59.4707 129.446 58.4907 129.446 57.2507V51.0907H132.386V56.8707C132.386 57.5907 132.486 58.0841 132.686 58.3507C132.886 58.6174 133.199 58.7507 133.626 58.7507C133.986 58.7507 134.299 58.6641 134.566 58.4907C134.833 58.3174 135.106 58.0374 135.386 57.6507V51.0907H138.326V61.0107H135.926L135.706 59.6307H135.646C135.233 60.1241 134.779 60.5174 134.286 60.8107C133.793 61.1041 133.206 61.2507 132.526 61.2507ZM140.913 61.0107V51.0907H143.853V61.0107H140.913ZM142.373 49.6307C141.88 49.6307 141.48 49.4907 141.173 49.2107C140.867 48.9307 140.713 48.5574 140.713 48.0907C140.713 47.6241 140.867 47.2507 141.173 46.9707C141.48 46.6907 141.88 46.5507 142.373 46.5507C142.867 46.5507 143.267 46.6907 143.573 46.9707C143.88 47.2507 144.033 47.6241 144.033 48.0907C144.033 48.5574 143.88 48.9307 143.573 49.2107C143.267 49.4907 142.867 49.6307 142.373 49.6307ZM145.901 61.0107V59.4307L150.061 53.3907H146.361V51.0907H153.721V52.6507L149.561 58.7107H153.861V61.0107H145.901Z" fill="#1F1F1F"/>
<path d="M197.891 39.0414C205.414 35.6049 211.866 39.44 214.915 46.569C216.091 49.322 216.806 52.8169 218.151 55.5662C220.19 59.7387 223.398 61.9217 224.137 66.9895C225.117 73.7223 219.155 78.804 212.597 78.6026C206.04 78.4012 202.619 72.1615 196.785 71.1235C192.326 70.3282 187.337 71.9205 182.937 70.4231C176.644 68.2723 173.173 60.4672 176.335 54.5491C178.657 50.205 184.111 49.2806 188.11 46.8035C191.476 44.7212 194.69 40.5002 197.89 39.0372L197.891 39.0414Z" fill="#FF99CF"/>
<path d="M195.38 7.33881C202.163 3.7389 206.933 11.1561 208.038 17.0075C209.198 23.1534 205.916 34.3945 197.744 31.8557C189.592 29.3204 188.348 11.0658 195.38 7.33881Z" fill="#FF99CF"/>
<path d="M174.591 17.965C181.836 14.4313 187.1 24.7548 187.982 30.5069C188.781 35.7306 185.978 43.8545 179.389 42.5846C170.867 40.9427 166.818 21.7531 174.591 17.965Z" fill="#FF99CF"/>
<path d="M220.145 14.727C222.686 13.5748 225.476 13.8661 227.644 15.6631C232.319 19.5324 230.773 28.075 227.895 32.6863C221.624 42.7307 212.424 39.2407 212.407 27.8386C212.401 23.0684 215.648 16.7651 220.145 14.727Z" fill="#FF99CF"/>
<path d="M230.588 39.0791C244.178 32.4845 246.495 50.3348 235.982 57.1685C227.718 62.543 220.48 55.8593 223.886 47.0983C224.966 44.3266 227.85 40.4031 230.583 39.0761L230.588 39.0791Z" fill="#FF99CF"/>
<path d="M192.341 1.70227C195.194 0.188857 198.275 -0.363495 201.325 0.23977C204.281 0.824474 206.631 2.37768 208.371 4.08319C210.586 6.25525 212.177 9.01628 213.212 11.744C214.45 10.6201 215.867 9.6382 217.465 8.91384L217.905 8.72315C222.473 6.83142 227.724 7.40152 231.773 10.7556C236.306 14.5072 237.252 20.0197 237.04 24.2171C236.918 26.6152 236.413 29.0286 235.64 31.2528C237.544 31.2049 239.427 31.5248 241.228 32.3071C245.583 34.198 247.839 38.0764 248.629 41.7579C250.144 48.8227 247.001 57.6467 239.516 62.5128C236.644 64.3806 233.488 65.41 230.418 65.4792C230.453 65.6748 230.488 65.8733 230.517 66.0749L230.517 66.0769C232.208 77.701 221.919 85.2843 212.398 84.9918C206.99 84.8257 203.088 82.0998 200.656 80.3655C197.767 78.305 196.791 77.6185 195.646 77.4146L195.644 77.4143C194.325 77.1791 192.911 77.2901 190.146 77.421C187.788 77.5327 184.325 77.6532 180.844 76.4685L180.836 76.4663C171.097 73.1375 165.481 61.2092 170.64 51.5553C171.577 49.8011 172.772 48.4171 174.035 47.3088C171.735 45.9791 169.951 44.08 168.649 42.2126C166.607 39.2833 165.252 35.7649 164.559 32.3342C163.869 28.9195 163.745 25.1398 164.601 21.6633C165.452 18.2066 167.503 14.2964 171.747 12.228C175.124 10.5815 178.649 10.4531 181.855 11.6312C182.933 12.0272 183.915 12.5487 184.805 13.1446C184.983 12.2148 185.214 11.2992 185.505 10.4112C186.532 7.27428 188.563 3.70515 192.341 1.70227ZM214.915 46.569C211.866 39.44 205.414 35.6049 197.891 39.0414L197.89 39.0372C194.69 40.5002 191.476 44.7212 188.11 46.8035C184.111 49.2806 178.657 50.205 176.335 54.5491C173.173 60.4672 176.644 68.2723 182.937 70.4231C187.337 71.9205 192.326 70.3282 196.785 71.1235C202.619 72.1615 206.04 78.4012 212.597 78.6026C219.052 78.8009 224.93 73.8799 224.178 67.3042L224.137 66.9895C223.398 61.9217 220.19 59.7387 218.151 55.5662C216.806 52.8169 216.091 49.322 214.915 46.569ZM235.982 57.1685C246.495 50.3348 244.178 32.4845 230.588 39.0791L230.583 39.0761C227.85 40.4031 224.966 44.3266 223.886 47.0983C220.48 55.8593 227.718 62.543 235.982 57.1685ZM219.728 14.9304C215.448 17.1575 212.402 23.2174 212.407 27.8386C212.424 39.2407 221.624 42.7307 227.895 32.6863C230.773 28.075 232.319 19.5324 227.644 15.6631C225.476 13.8661 222.686 13.5748 220.145 14.727L219.728 14.9304ZM174.411 18.0561C166.881 22.0512 170.933 40.9553 179.389 42.5846C185.978 43.8545 188.781 35.7306 187.982 30.5069C187.1 24.7548 181.836 14.4313 174.591 17.965L174.411 18.0561ZM195.056 7.52376C188.389 11.6322 189.719 29.3597 197.744 31.8557C205.788 34.3548 209.095 23.5011 208.09 17.2991L208.038 17.0075C206.933 11.1561 202.163 3.7389 195.38 7.33881L195.056 7.52376Z" fill="black"/>
</svg>
